<svg width="58" height="38" viewBox="0 0 58 38" fill="none" xmlns="http://www.w3.org/2000/svg">
<g clip-path="url(#clip0_1050_11436)">
<path d="M18.7353 28.3491C18.8142 28.2794 19.6218 27.6367 20.5298 26.9211C21.4379 26.2055 22.2348 25.5754 22.3008 25.5209C22.3668 25.4664 21.9606 24.0583 21.3982 22.3919C20.3021 19.1441 20.0899 18.0017 20.2652 16.2942C20.3992 14.9889 21.0627 13.7283 22.1134 12.7831C23.3172 11.7001 25.3286 10.5977 27.3685 9.90293L28.1056 9.65186L28.5003 11.5919C28.7174 12.6589 28.9366 13.5319 28.9876 13.5319C29.0385 13.5319 29.2644 12.6592 29.4895 11.5926L29.8989 9.65328L30.6339 9.90365C32.6716 10.5977 34.6836 11.7006 35.8869 12.7831C36.9375 13.7283 37.601 14.9889 37.7351 16.2942C37.9104 18.0017 37.6981 19.1441 36.602 22.3919C36.0396 24.0583 35.6334 25.4664 35.6994 25.5209C35.7654 25.5754 36.5624 26.2055 37.4704 26.9211C38.3785 27.6367 39.186 28.2794 39.265 28.3491C39.4052 28.4731 39.0585 28.3554 34.9939 26.9L33.0199 26.1932V22.0877C33.0199 17.4603 33.0418 17.5699 31.927 16.6164C30.3615 15.2773 27.6388 15.2773 26.0732 16.6164C24.9584 17.5699 24.9803 17.4603 24.9803 22.0877V26.1932L23.0063 26.9C18.9418 28.3554 18.5951 28.4731 18.7353 28.3491ZM27.1417 21.8098C27.3742 21.1413 27.5622 20.5277 27.5593 20.4462C27.5565 20.3647 27.0426 19.9527 26.4172 19.5307L25.2802 18.7634L26.7366 18.6936L28.1929 18.6239L28.6295 17.3253L29.0661 16.0267L29.5113 17.3253L29.9565 18.6239L31.3794 18.6936L32.8024 18.7634L31.7267 19.5161C31.1351 19.9301 30.6279 20.2874 30.5996 20.3102C30.5713 20.3329 30.7482 20.9314 30.9928 21.64C31.2374 22.3486 31.4221 22.9429 31.4032 22.9607C31.3844 22.9784 30.8556 22.6305 30.2283 22.1877L29.0877 21.3825L28.0748 22.1054C27.5178 22.5029 26.9848 22.8725 26.8904 22.9267C26.7956 22.9812 26.908 22.4816 27.1417 21.8098Z" fill="#FDFDFE"/>
<path d="M0 18.9725V8.50952H29H58V18.9725V29.4354H29H0V18.9725ZM21.8517 27.4028L24.9683 26.2965L25.0101 22.0991L25.052 17.9017L25.4726 17.3122C26.3034 16.1478 28.1336 15.4995 29.8031 15.7783C31.3579 16.0379 32.6686 17.0328 32.9545 18.1703L33.0509 18.5539H31.5398H30.0286L29.57 17.2163C29.3178 16.4807 29.0664 15.9313 29.0113 15.9957C28.9562 16.06 28.7258 16.6913 28.4993 17.3985L28.0875 18.6845L26.5905 18.7239L25.0934 18.7632L26.3155 19.5777L27.5376 20.3921L27.1203 21.5918C26.5764 23.1554 26.5812 23.2786 27.1696 22.854C27.4262 22.6688 27.9637 22.2877 28.364 22.007L29.0918 21.4967L30.2899 22.3274C30.9489 22.7842 31.5094 23.1373 31.5354 23.112C31.5614 23.0868 31.3892 22.5099 31.1527 21.8301C30.9162 21.1504 30.7251 20.5275 30.7279 20.446C30.7307 20.3645 31.2475 19.938 31.8764 19.4983L33.0198 18.6989L33.0204 22.4977L33.0209 26.2965L36.2682 27.4536C38.0541 28.09 39.5384 28.5883 39.5664 28.5611C39.5945 28.5338 38.747 27.8248 37.6831 26.9855C36.6192 26.1462 35.7485 25.4031 35.7481 25.3343C35.7478 25.2654 36.2064 23.8529 36.7673 22.1954C37.681 19.4952 37.795 19.0361 37.8631 17.7814C38.0547 14.2507 36.3807 12.1832 31.7576 10.2409C31.1393 9.98116 30.4403 9.73111 30.2043 9.68523L29.7751 9.60183L29.433 11.3575C29.2448 12.3232 29.05 13.1132 29 13.1132C28.95 13.1132 28.7552 12.3232 28.567 11.3575L28.2249 9.60183L27.7957 9.68523C27.5597 9.73111 26.8607 9.98116 26.2424 10.2409C21.6193 12.1832 19.9453 14.2507 20.1369 17.7814C20.2051 19.0376 20.3188 19.4948 21.2421 22.2233C21.8082 23.8962 22.2509 25.3191 22.226 25.3854C22.2011 25.4516 21.3731 26.145 20.3861 26.9263C19.3991 27.7075 18.527 28.4126 18.448 28.4931C18.2637 28.681 18.1344 28.7224 21.8517 27.4028Z" fill="#0032FE"/>
<path d="M0 34.5974V31.2493H29H58V34.5974V37.9456L29 38H0V34.5974ZM0 3.34814V0H29H58V3.34814V6.69628H29H0V3.34814Z" fill="#008700"/>
<path d="M0 30.3425V29.4357H29H58V30.3425V31.2493H29H0V30.3425ZM0 7.60308V6.69629H29H58V7.60308V8.50986H29H0V7.60308Z" fill="black"/>
</g>
<defs>
<clipPath id="clip0_1050_11436">
<rect width="58" height="38" rx="3" fill="white"/>
</clipPath>
</defs>
</svg>
