<svg width="551" height="206" viewBox="0 0 551 206" fill="none" xmlns="http://www.w3.org/2000/svg">
<path d="M8.87875 81.3198H55.0788V88.9998H0.71875V9.7998H8.87875V81.3198Z" fill="#271106"/>
<path d="M72.9456 17.4798C71.1056 17.4798 69.5856 16.9198 68.3856 15.7998C67.2656 14.5998 66.7056 13.0398 66.7056 11.1198C66.7056 9.1998 67.2656 7.6798 68.3856 6.5598C69.5856 5.3598 71.1456 4.7598 73.0656 4.7598C74.9056 4.7598 76.3856 5.3598 77.5056 6.5598C78.7056 7.6798 79.3056 9.1998 79.3056 11.1198C79.3056 13.0398 78.7056 14.5998 77.5056 15.7998C76.3856 16.9198 74.8656 17.4798 72.9456 17.4798ZM77.0256 28.9998V88.9998H68.8656V28.9998H77.0256Z" fill="#271106"/>
<path d="M121.783 0.799805C123.943 0.799805 125.903 1.0798 127.663 1.6398C129.423 2.1198 130.823 2.8398 131.863 3.7998L129.703 10.3998C128.663 9.5998 127.543 9.0398 126.343 8.7198C125.223 8.3998 123.943 8.2398 122.503 8.2398C118.903 8.2398 116.063 9.1998 113.983 11.1198C111.983 12.9598 110.983 15.8398 110.983 19.7598V28.9998V31.7598V88.9998H102.823V18.9198C102.823 16.2798 103.223 13.8398 104.023 11.5998C104.823 9.3598 106.023 7.4398 107.623 5.8398C109.223 4.2398 111.183 2.9998 113.503 2.1198C115.903 1.2398 118.663 0.799805 121.783 0.799805ZM131.503 28.9998V36.0798H90.8228V28.9998H131.503Z" fill="#271106"/>
<path d="M166.099 90.1998C160.499 90.1998 155.499 88.9598 151.099 86.4798C146.699 83.9998 143.259 80.4398 140.779 75.7998C138.379 71.0798 137.179 65.4798 137.179 58.9998C137.179 52.5198 138.379 46.9598 140.779 42.3198C143.259 37.5998 146.619 33.9998 150.859 31.5198C155.179 29.0398 160.059 27.7998 165.499 27.7998C171.019 27.7998 175.739 28.9998 179.659 31.3998C183.579 33.7998 186.579 37.1198 188.659 41.3598C190.739 45.5198 191.779 50.2398 191.779 55.5198C191.779 56.6398 191.739 57.6798 191.659 58.6398C191.579 59.5198 191.499 60.3598 191.419 61.1598H142.339V53.8398H187.819L183.619 54.7998C183.619 48.5598 181.939 43.6798 178.579 40.1598C175.299 36.6398 170.859 34.8798 165.259 34.8798C161.259 34.8798 157.739 35.8398 154.699 37.7598C151.659 39.6798 149.299 42.4398 147.619 46.0398C145.939 49.6398 145.099 53.9598 145.099 58.9998C145.099 63.9598 145.939 68.2798 147.619 71.9598C149.379 75.5598 151.819 78.3198 154.939 80.2398C158.059 82.1598 161.739 83.1198 165.979 83.1198C170.459 83.1198 174.179 82.1998 177.139 80.3598C180.179 78.5198 182.579 76.0398 184.339 72.9198L190.699 76.6398C189.179 79.4398 187.219 81.8798 184.819 83.9598C182.499 85.9598 179.739 87.5198 176.539 88.6398C173.419 89.6798 169.939 90.1998 166.099 90.1998Z" fill="#271106"/>
<path d="M269.163 0.799805C271.323 0.799805 273.283 1.0798 275.043 1.6398C276.803 2.1198 278.202 2.8398 279.242 3.7998L277.082 10.3998C276.042 9.5998 274.923 9.0398 273.723 8.7198C272.603 8.3998 271.323 8.2398 269.883 8.2398C266.283 8.2398 263.442 9.1998 261.362 11.1198C259.362 12.9598 258.362 15.8398 258.362 19.7598V28.9998V31.7598V88.9998H250.203V18.9198C250.203 16.2798 250.602 13.8398 251.402 11.5998C252.202 9.3598 253.403 7.4398 255.003 5.8398C256.603 4.2398 258.563 2.9998 260.883 2.1198C263.283 1.2398 266.043 0.799805 269.163 0.799805ZM278.883 28.9998V36.0798H238.202V28.9998H278.883Z" fill="#271106"/>
<path d="M313.359 27.7998C319.039 27.7998 324.039 29.0398 328.359 31.5198C332.679 33.9998 336.039 37.5998 338.439 42.3198C340.919 46.9598 342.159 52.5198 342.159 58.9998C342.159 65.4798 340.919 71.0798 338.439 75.7998C336.039 80.4398 332.679 83.9998 328.359 86.4798C324.039 88.9598 319.039 90.1998 313.359 90.1998C307.759 90.1998 302.759 88.9598 298.359 86.4798C294.039 83.9998 290.639 80.4398 288.159 75.7998C285.759 71.0798 284.559 65.4798 284.559 58.9998C284.559 52.5198 285.759 46.9598 288.159 42.3198C290.639 37.5998 294.039 33.9998 298.359 31.5198C302.759 29.0398 307.759 27.7998 313.359 27.7998ZM313.359 34.8798C309.119 34.8798 305.439 35.8398 302.319 37.7598C299.279 39.6798 296.919 42.4398 295.239 46.0398C293.559 49.6398 292.719 53.9598 292.719 58.9998C292.719 63.9598 293.559 68.2798 295.239 71.9598C296.919 75.5598 299.279 78.3198 302.319 80.2398C305.439 82.1598 309.119 83.1198 313.359 83.1198C317.679 83.1198 321.359 82.1598 324.399 80.2398C327.519 78.3198 329.919 75.5598 331.599 71.9598C333.279 68.2798 334.119 63.9598 334.119 58.9998C334.119 53.9598 333.279 49.6398 331.599 46.0398C329.919 42.4398 327.519 39.6798 324.399 37.7598C321.359 35.8398 317.679 34.8798 313.359 34.8798Z" fill="#271106"/>
<path d="M359.289 88.9998V28.9998H366.009L367.089 39.9198C368.689 36.0798 371.129 33.1198 374.409 31.0398C377.689 28.8798 381.689 27.7998 386.409 27.7998C387.689 27.7998 388.929 27.9198 390.129 28.1598C391.409 28.3998 392.489 28.7998 393.369 29.3598L391.809 36.6798C390.929 36.2798 389.969 35.9998 388.929 35.8398C387.889 35.5998 386.369 35.4798 384.369 35.4798C381.729 35.4798 379.089 36.2798 376.449 37.8798C373.809 39.4798 371.649 41.8398 369.969 44.9598C368.289 47.9998 367.449 51.7198 367.449 56.1198V88.9998H359.289Z" fill="#271106"/>
<path d="M60.9588 124.8L26.8787 159.6L25.6787 160.92L4.79875 182.28V171.24L50.1587 124.8H60.9588ZM8.87875 124.8V204H0.71875V124.8H8.87875ZM27.7188 154.32L61.4388 204H51.5988L20.9987 159L27.7188 154.32Z" fill="#271106"/>
<path d="M94.5231 142.8C100.203 142.8 105.203 144.04 109.523 146.52C113.843 149 117.203 152.6 119.603 157.32C122.083 161.96 123.323 167.52 123.323 174C123.323 180.48 122.083 186.08 119.603 190.8C117.203 195.44 113.843 199 109.523 201.48C105.203 203.96 100.203 205.2 94.5231 205.2C88.9231 205.2 83.9231 203.96 79.5231 201.48C75.2031 199 71.8031 195.44 69.3231 190.8C66.9231 186.08 65.7231 180.48 65.7231 174C65.7231 167.52 66.9231 161.96 69.3231 157.32C71.8031 152.6 75.2031 149 79.5231 146.52C83.9231 144.04 88.9231 142.8 94.5231 142.8ZM94.5231 149.88C90.2831 149.88 86.6031 150.84 83.4831 152.76C80.4431 154.68 78.0831 157.44 76.4031 161.04C74.7231 164.64 73.8831 168.96 73.8831 174C73.8831 178.96 74.7231 183.28 76.4031 186.96C78.0831 190.56 80.4431 193.32 83.4831 195.24C86.6031 197.16 90.2831 198.12 94.5231 198.12C98.8431 198.12 102.523 197.16 105.563 195.24C108.683 193.32 111.083 190.56 112.763 186.96C114.443 183.28 115.283 178.96 115.283 174C115.283 168.96 114.443 164.64 112.763 161.04C111.083 157.44 108.683 154.68 105.563 152.76C102.523 150.84 98.8431 149.88 94.5231 149.88Z" fill="#271106"/>
<path d="M165.173 142.8C170.853 142.8 175.853 144.04 180.173 146.52C184.493 149 187.853 152.6 190.253 157.32C192.733 161.96 193.973 167.52 193.973 174C193.973 180.48 192.733 186.08 190.253 190.8C187.853 195.44 184.493 199 180.173 201.48C175.853 203.96 170.853 205.2 165.173 205.2C159.573 205.2 154.573 203.96 150.173 201.48C145.853 199 142.453 195.44 139.973 190.8C137.573 186.08 136.373 180.48 136.373 174C136.373 167.52 137.573 161.96 139.973 157.32C142.453 152.6 145.853 149 150.173 146.52C154.573 144.04 159.573 142.8 165.173 142.8ZM165.173 149.88C160.933 149.88 157.253 150.84 154.133 152.76C151.093 154.68 148.733 157.44 147.053 161.04C145.373 164.64 144.533 168.96 144.533 174C144.533 178.96 145.373 183.28 147.053 186.96C148.733 190.56 151.093 193.32 154.133 195.24C157.253 197.16 160.933 198.12 165.173 198.12C169.493 198.12 173.173 197.16 176.213 195.24C179.333 193.32 181.733 190.56 183.413 186.96C185.093 183.28 185.933 178.96 185.933 174C185.933 168.96 185.093 164.64 183.413 161.04C181.733 157.44 179.333 154.68 176.213 152.76C173.173 150.84 169.493 149.88 165.173 149.88Z" fill="#271106"/>
<path d="M211.103 204V144H217.823L218.903 154.92C220.503 151.08 222.943 148.12 226.223 146.04C229.503 143.88 233.503 142.8 238.223 142.8C239.503 142.8 240.743 142.92 241.943 143.16C243.223 143.4 244.303 143.8 245.183 144.36L243.623 151.68C242.743 151.28 241.783 151 240.743 150.84C239.703 150.6 238.183 150.48 236.183 150.48C233.543 150.48 230.903 151.28 228.263 152.88C225.623 154.48 223.463 156.84 221.783 159.96C220.103 163 219.263 166.72 219.263 171.12V204H211.103Z" fill="#271106"/>
<path d="M262.161 132.48C260.321 132.48 258.801 131.92 257.601 130.8C256.481 129.6 255.921 128.04 255.921 126.12C255.921 124.2 256.481 122.68 257.601 121.56C258.801 120.36 260.361 119.76 262.281 119.76C264.121 119.76 265.601 120.36 266.721 121.56C267.921 122.68 268.521 124.2 268.521 126.12C268.521 128.04 267.921 129.6 266.721 130.8C265.601 131.92 264.081 132.48 262.161 132.48ZM266.241 144V204H258.081V144H266.241Z" fill="#271106"/>
<path d="M388.648 124.8L354.568 159.6L353.368 160.92L332.488 182.28V171.24L377.848 124.8H388.648ZM336.568 124.8V204H328.408V124.8H336.568ZM355.408 154.32L389.128 204H379.288L348.688 159L355.408 154.32Z" fill="#271106"/>
<path d="M406.494 132.48C404.654 132.48 403.134 131.92 401.934 130.8C400.814 129.6 400.254 128.04 400.254 126.12C400.254 124.2 400.814 122.68 401.934 121.56C403.134 120.36 404.694 119.76 406.614 119.76C408.454 119.76 409.934 120.36 411.054 121.56C412.254 122.68 412.854 124.2 412.854 126.12C412.854 128.04 412.254 129.6 411.054 130.8C409.934 131.92 408.414 132.48 406.494 132.48ZM410.574 144V204H402.414V144H410.574Z" fill="#271106"/>
<path d="M455.331 205.2C450.291 205.2 445.691 203.96 441.531 201.48C437.371 199 434.051 195.44 431.571 190.8C429.171 186.08 427.971 180.48 427.971 174C427.971 167.36 429.251 161.72 431.811 157.08C434.451 152.44 437.891 148.92 442.131 146.52C446.451 144.04 451.131 142.8 456.171 142.8C461.371 142.8 465.851 144.16 469.611 146.88C473.371 149.6 475.891 153.28 477.171 157.92L476.211 158.64V116.4H484.371V204H477.171L476.451 188.64L477.531 188.04C476.891 191.72 475.491 194.84 473.331 197.4C471.251 199.96 468.611 201.92 465.411 203.28C462.291 204.56 458.931 205.2 455.331 205.2ZM456.291 198.12C460.211 198.12 463.651 197.12 466.611 195.12C469.651 193.04 472.011 190.16 473.691 186.48C475.371 182.72 476.211 178.32 476.211 173.28C476.211 168.48 475.371 164.32 473.691 160.8C472.011 157.28 469.691 154.6 466.731 152.76C463.851 150.84 460.491 149.88 456.651 149.88C450.251 149.88 445.211 152.08 441.531 156.48C437.931 160.8 436.131 166.64 436.131 174C436.131 181.36 437.891 187.24 441.411 191.64C445.011 195.96 449.971 198.12 456.291 198.12Z" fill="#271106"/>
<path d="M526.748 205.2C520.828 205.2 515.428 203.96 510.548 201.48C505.748 199 502.188 195.48 499.868 190.92L506.828 186C508.428 189.76 510.988 192.72 514.508 194.88C518.028 197.04 522.308 198.12 527.348 198.12C531.988 198.12 535.628 197.2 538.268 195.36C540.988 193.52 542.348 191.12 542.348 188.16C542.348 186.24 541.708 184.52 540.428 183C539.148 181.4 536.788 180.24 533.348 179.52L519.068 176.52C513.308 175.32 509.188 173.36 506.708 170.64C504.228 167.92 502.988 164.52 502.988 160.44C502.988 157.24 503.908 154.32 505.748 151.68C507.668 148.96 510.348 146.8 513.788 145.2C517.228 143.6 521.268 142.8 525.908 142.8C531.908 142.8 536.908 143.96 540.908 146.28C544.908 148.6 547.828 152 549.668 156.48L542.828 160.92C541.548 157.08 539.348 154.28 536.228 152.52C533.108 150.76 529.668 149.88 525.908 149.88C522.868 149.88 520.228 150.36 517.988 151.32C515.748 152.2 514.028 153.4 512.828 154.92C511.628 156.44 511.028 158.16 511.028 160.08C511.028 162.08 511.708 163.92 513.068 165.6C514.428 167.2 516.908 168.36 520.508 169.08L535.268 172.2C540.868 173.32 544.788 175.16 547.028 177.72C549.268 180.2 550.388 183.28 550.388 186.96C550.388 190.64 549.388 193.88 547.388 196.68C545.468 199.4 542.708 201.52 539.108 203.04C535.588 204.48 531.468 205.2 526.748 205.2Z" fill="#271106"/>
</svg>
