<svg width="551" height="205" viewBox="0 0 551 205" fill="#271106" xmlns="http://www.w3.org/2000/svg">
<path d="M8.69906 80.9429H54.8991V88.6229H0.539062V9.42285H8.69906V80.9429Z"/>
<path d="M72.7659 17.1029C70.9259 17.1029 69.4059 16.5429 68.2059 15.4229C67.0859 14.2229 66.5259 12.6629 66.5259 10.7428C66.5259 8.82285 67.0859 7.30285 68.2059 6.18285C69.4059 4.98285 70.9659 4.38285 72.8859 4.38285C74.7259 4.38285 76.2059 4.98285 77.3259 6.18285C78.5259 7.30285 79.1259 8.82285 79.1259 10.7428C79.1259 12.6629 78.5259 14.2229 77.3259 15.4229C76.2059 16.5429 74.6859 17.1029 72.7659 17.1029ZM76.8459 28.6229V88.6229H68.6859V28.6229H76.8459Z"/>
<path d="M121.603 0.422852C123.763 0.422852 125.723 0.70285 127.483 1.26285C129.243 1.74285 130.643 2.46285 131.683 3.42285L129.523 10.0228C128.483 9.22285 127.363 8.66285 126.163 8.34285C125.043 8.02285 123.763 7.86285 122.323 7.86285C118.723 7.86285 115.883 8.82285 113.803 10.7428C111.803 12.5828 110.803 15.4628 110.803 19.3829V28.6229V31.3829V88.6229H102.643V18.5428C102.643 15.9028 103.043 13.4628 103.843 11.2228C104.643 8.98285 105.843 7.06285 107.443 5.46285C109.043 3.86285 111.003 2.62285 113.323 1.74285C115.723 0.86285 118.483 0.422852 121.603 0.422852ZM131.323 28.6229V35.7029H90.6431V28.6229H131.323Z"/>
<path d="M165.92 89.8229C160.32 89.8229 155.32 88.5829 150.92 86.1029C146.52 83.6229 143.08 80.0629 140.6 75.4229C138.2 70.7029 137 65.1029 137 58.6229C137 52.1428 138.2 46.5828 140.6 41.9428C143.08 37.2228 146.44 33.6229 150.68 31.1428C155 28.6628 159.88 27.4228 165.32 27.4228C170.84 27.4228 175.56 28.6228 179.48 31.0229C183.4 33.4229 186.4 36.7428 188.48 40.9828C190.56 45.1428 191.6 49.8628 191.6 55.1428C191.6 56.2628 191.56 57.3029 191.48 58.2629C191.4 59.1429 191.32 59.9828 191.24 60.7828H142.16V53.4629H187.64L183.44 54.4228C183.44 48.1828 181.76 43.3029 178.4 39.7829C175.12 36.2628 170.68 34.5028 165.08 34.5028C161.08 34.5028 157.56 35.4628 154.52 37.3829C151.48 39.3028 149.12 42.0628 147.44 45.6628C145.76 49.2628 144.92 53.5829 144.92 58.6229C144.92 63.5829 145.76 67.9029 147.44 71.5829C149.2 75.1829 151.64 77.9429 154.76 79.8629C157.88 81.7829 161.56 82.7429 165.8 82.7429C170.28 82.7429 174 81.8229 176.96 79.9829C180 78.1429 182.4 75.6629 184.16 72.5429L190.52 76.2629C189 79.0629 187.04 81.5029 184.64 83.5829C182.32 85.5829 179.56 87.1429 176.36 88.2629C173.24 89.3029 169.76 89.8229 165.92 89.8229Z"/>
<path d="M268.983 0.422852C271.143 0.422852 273.103 0.70285 274.863 1.26285C276.623 1.74285 278.023 2.46285 279.063 3.42285L276.903 10.0228C275.863 9.22285 274.743 8.66285 273.543 8.34285C272.423 8.02285 271.143 7.86285 269.703 7.86285C266.103 7.86285 263.263 8.82285 261.183 10.7428C259.183 12.5828 258.183 15.4628 258.183 19.3829V28.6229V31.3829V88.6229H250.023V18.5428C250.023 15.9028 250.423 13.4628 251.223 11.2228C252.023 8.98285 253.223 7.06285 254.823 5.46285C256.423 3.86285 258.383 2.62285 260.703 1.74285C263.103 0.86285 265.863 0.422852 268.983 0.422852ZM278.703 28.6229V35.7029H238.023V28.6229H278.703Z"/>
<path d="M313.179 27.4228C318.859 27.4228 323.859 28.6628 328.179 31.1428C332.499 33.6229 335.859 37.2228 338.259 41.9428C340.739 46.5828 341.979 52.1428 341.979 58.6229C341.979 65.1029 340.739 70.7029 338.259 75.4229C335.859 80.0629 332.499 83.6229 328.179 86.1029C323.859 88.5829 318.859 89.8229 313.179 89.8229C307.579 89.8229 302.579 88.5829 298.179 86.1029C293.859 83.6229 290.459 80.0629 287.979 75.4229C285.579 70.7029 284.379 65.1029 284.379 58.6229C284.379 52.1428 285.579 46.5828 287.979 41.9428C290.459 37.2228 293.859 33.6229 298.179 31.1428C302.579 28.6628 307.579 27.4228 313.179 27.4228ZM313.179 34.5028C308.939 34.5028 305.259 35.4628 302.139 37.3829C299.099 39.3028 296.739 42.0628 295.059 45.6628C293.379 49.2628 292.539 53.5829 292.539 58.6229C292.539 63.5829 293.379 67.9029 295.059 71.5829C296.739 75.1829 299.099 77.9429 302.139 79.8629C305.259 81.7829 308.939 82.7429 313.179 82.7429C317.499 82.7429 321.179 81.7829 324.219 79.8629C327.339 77.9429 329.739 75.1829 331.419 71.5829C333.099 67.9029 333.939 63.5829 333.939 58.6229C333.939 53.5829 333.099 49.2628 331.419 45.6628C329.739 42.0628 327.339 39.3028 324.219 37.3829C321.179 35.4628 317.499 34.5028 313.179 34.5028Z"/>
<path d="M359.109 88.6229V28.6229H365.829L366.909 39.5429C368.509 35.7028 370.949 32.7428 374.229 30.6628C377.509 28.5028 381.509 27.4228 386.229 27.4228C387.509 27.4228 388.749 27.5428 389.949 27.7828C391.229 28.0229 392.309 28.4229 393.189 28.9829L391.629 36.3028C390.749 35.9028 389.789 35.6228 388.749 35.4628C387.709 35.2228 386.189 35.1029 384.189 35.1029C381.549 35.1029 378.909 35.9029 376.269 37.5028C373.629 39.1029 371.469 41.4629 369.789 44.5829C368.109 47.6229 367.269 51.3428 367.269 55.7428V88.6229H359.109Z"/>
<path d="M60.7791 124.423L26.6991 159.223L25.4991 160.543L4.61906 181.903V170.863L49.9791 124.423H60.7791ZM8.69906 124.423V203.623H0.539062V124.423H8.69906ZM27.5391 153.943L61.2591 203.623H51.4191L20.8191 158.623L27.5391 153.943Z"/>
<path d="M94.3434 142.423C100.023 142.423 105.023 143.663 109.343 146.143C113.663 148.623 117.023 152.223 119.423 156.943C121.903 161.583 123.143 167.143 123.143 173.623C123.143 180.103 121.903 185.703 119.423 190.423C117.023 195.063 113.663 198.623 109.343 201.103C105.023 203.583 100.023 204.823 94.3434 204.823C88.7434 204.823 83.7434 203.583 79.3434 201.103C75.0234 198.623 71.6234 195.063 69.1434 190.423C66.7434 185.703 65.5434 180.103 65.5434 173.623C65.5434 167.143 66.7434 161.583 69.1434 156.943C71.6234 152.223 75.0234 148.623 79.3434 146.143C83.7434 143.663 88.7434 142.423 94.3434 142.423ZM94.3434 149.503C90.1034 149.503 86.4234 150.463 83.3034 152.383C80.2634 154.303 77.9034 157.063 76.2234 160.663C74.5434 164.263 73.7034 168.583 73.7034 173.623C73.7034 178.583 74.5434 182.903 76.2234 186.583C77.9034 190.183 80.2634 192.943 83.3034 194.863C86.4234 196.783 90.1034 197.743 94.3434 197.743C98.6634 197.743 102.343 196.783 105.383 194.863C108.503 192.943 110.903 190.183 112.583 186.583C114.263 182.903 115.103 178.583 115.103 173.623C115.103 168.583 114.263 164.263 112.583 160.663C110.903 157.063 108.503 154.303 105.383 152.383C102.343 150.463 98.6634 149.503 94.3434 149.503Z"/>
<path d="M164.993 142.423C170.673 142.423 175.673 143.663 179.993 146.143C184.313 148.623 187.673 152.223 190.073 156.943C192.553 161.583 193.793 167.143 193.793 173.623C193.793 180.103 192.553 185.703 190.073 190.423C187.673 195.063 184.313 198.623 179.993 201.103C175.673 203.583 170.673 204.823 164.993 204.823C159.393 204.823 154.393 203.583 149.993 201.103C145.673 198.623 142.273 195.063 139.793 190.423C137.393 185.703 136.193 180.103 136.193 173.623C136.193 167.143 137.393 161.583 139.793 156.943C142.273 152.223 145.673 148.623 149.993 146.143C154.393 143.663 159.393 142.423 164.993 142.423ZM164.993 149.503C160.753 149.503 157.073 150.463 153.953 152.383C150.913 154.303 148.553 157.063 146.873 160.663C145.193 164.263 144.353 168.583 144.353 173.623C144.353 178.583 145.193 182.903 146.873 186.583C148.553 190.183 150.913 192.943 153.953 194.863C157.073 196.783 160.753 197.743 164.993 197.743C169.313 197.743 172.993 196.783 176.033 194.863C179.153 192.943 181.553 190.183 183.233 186.583C184.913 182.903 185.753 178.583 185.753 173.623C185.753 168.583 184.913 164.263 183.233 160.663C181.553 157.063 179.153 154.303 176.033 152.383C172.993 150.463 169.313 149.503 164.993 149.503Z"/>
<path d="M210.923 203.623V143.623H217.643L218.723 154.543C220.323 150.703 222.763 147.743 226.043 145.663C229.323 143.503 233.323 142.423 238.043 142.423C239.323 142.423 240.563 142.543 241.763 142.783C243.043 143.023 244.123 143.423 245.003 143.983L243.443 151.303C242.563 150.903 241.603 150.623 240.563 150.463C239.523 150.223 238.003 150.103 236.003 150.103C233.363 150.103 230.723 150.903 228.083 152.503C225.443 154.103 223.283 156.463 221.603 159.583C219.923 162.623 219.083 166.343 219.083 170.743V203.623H210.923Z"/>
<path d="M261.982 132.103C260.142 132.103 258.622 131.543 257.422 130.423C256.302 129.223 255.742 127.663 255.742 125.743C255.742 123.823 256.302 122.303 257.422 121.183C258.622 119.983 260.182 119.383 262.102 119.383C263.942 119.383 265.422 119.983 266.542 121.183C267.742 122.303 268.342 123.823 268.342 125.743C268.342 127.663 267.742 129.223 266.542 130.423C265.422 131.543 263.902 132.103 261.982 132.103ZM266.062 143.623V203.623H257.902V143.623H266.062Z"/>
<path d="M388.468 124.423L354.388 159.223L353.188 160.543L332.308 181.903V170.863L377.668 124.423H388.468ZM336.388 124.423V203.623H328.228V124.423H336.388ZM355.228 153.943L388.948 203.623H379.108L348.508 158.623L355.228 153.943Z"/>
<path d="M406.314 132.103C404.474 132.103 402.954 131.543 401.754 130.423C400.634 129.223 400.074 127.663 400.074 125.743C400.074 123.823 400.634 122.303 401.754 121.183C402.954 119.983 404.514 119.383 406.434 119.383C408.274 119.383 409.754 119.983 410.874 121.183C412.074 122.303 412.674 123.823 412.674 125.743C412.674 127.663 412.074 129.223 410.874 130.423C409.754 131.543 408.234 132.103 406.314 132.103ZM410.394 143.623V203.623H402.234V143.623H410.394Z"/>
<path d="M455.152 204.823C450.112 204.823 445.512 203.583 441.352 201.103C437.192 198.623 433.872 195.063 431.392 190.423C428.992 185.703 427.792 180.103 427.792 173.623C427.792 166.983 429.072 161.343 431.632 156.703C434.272 152.063 437.712 148.543 441.952 146.143C446.272 143.663 450.952 142.423 455.992 142.423C461.192 142.423 465.672 143.783 469.432 146.503C473.192 149.223 475.712 152.903 476.992 157.543L476.032 158.263V116.023H484.192V203.623H476.992L476.272 188.263L477.352 187.663C476.712 191.343 475.312 194.463 473.152 197.023C471.072 199.583 468.432 201.543 465.232 202.903C462.112 204.183 458.752 204.823 455.152 204.823ZM456.112 197.743C460.032 197.743 463.472 196.743 466.432 194.743C469.472 192.663 471.832 189.783 473.512 186.103C475.192 182.343 476.032 177.943 476.032 172.903C476.032 168.103 475.192 163.943 473.512 160.423C471.832 156.903 469.512 154.223 466.552 152.383C463.672 150.463 460.312 149.503 456.472 149.503C450.072 149.503 445.032 151.703 441.352 156.103C437.752 160.423 435.952 166.263 435.952 173.623C435.952 180.983 437.712 186.863 441.232 191.263C444.832 195.583 449.792 197.743 456.112 197.743Z"/>
<path d="M526.568 204.823C520.648 204.823 515.248 203.583 510.368 201.103C505.568 198.623 502.008 195.103 499.688 190.543L506.648 185.623C508.248 189.383 510.808 192.343 514.328 194.503C517.848 196.663 522.128 197.743 527.168 197.743C531.808 197.743 535.449 196.823 538.089 194.983C540.809 193.143 542.168 190.743 542.168 187.783C542.168 185.863 541.528 184.143 540.248 182.623C538.968 181.023 536.608 179.863 533.168 179.143L518.888 176.143C513.128 174.943 509.008 172.983 506.528 170.263C504.048 167.543 502.808 164.143 502.808 160.063C502.808 156.863 503.728 153.943 505.568 151.303C507.488 148.583 510.168 146.423 513.608 144.823C517.048 143.223 521.088 142.423 525.728 142.423C531.728 142.423 536.728 143.583 540.728 145.903C544.728 148.223 547.648 151.623 549.488 156.103L542.648 160.543C541.368 156.703 539.168 153.903 536.048 152.143C532.928 150.383 529.488 149.503 525.728 149.503C522.688 149.503 520.048 149.983 517.808 150.943C515.568 151.823 513.848 153.023 512.648 154.543C511.448 156.063 510.848 157.783 510.848 159.703C510.848 161.703 511.528 163.543 512.888 165.223C514.248 166.823 516.728 167.983 520.328 168.703L535.089 171.823C540.689 172.943 544.608 174.783 546.848 177.343C549.088 179.823 550.208 182.903 550.208 186.583C550.208 190.263 549.208 193.503 547.208 196.303C545.288 199.023 542.528 201.143 538.928 202.663C535.408 204.103 531.288 204.823 526.568 204.823Z"/>
</svg>
